TexturaLiberaSP-Medium.sfdir
StartChar: dollar
Encoding: 36 36 4
Width: 600
Flags: MW
LayerCount: 4
Fore
SplineSet
300 700 m 25
 300 -150 l 1049
550 600 m 17
 550 600 510 550 475 550 c 24
 366 550 200 600 200 600 c 9
 100 500 l 1
 100 340 l 1
 500 260 l 1
 500 100 l 5
 400 0 l 17
 400 0 234 50 125 50 c 24
 90 50 50 0 50 0 c 1025
EndSplineSet
EndChar
StartChar: plus
Encoding: 43 43 11
Width: 600
Flags: MW
LayerCount: 4
Fore
SplineSet
300 500 m 29
 300 100 l 1053
100 300 m 29
 500 300 l 1053
EndSplineSet
EndChar
StartChar: two
Encoding: 50 50 18
Width: 400
Flags: MW
LayerCount: 4
Fore
SplineSet
100 350 m 1
 150 400 l 1
 200 400 l 1
 300 350 l 1
 300 275 l 1
 100 75 l 25
 100 0 l 1
 100 0 163 50 250 50 c 3
 285 50 325 0 326 0 c 1025
EndSplineSet
Substitution2: "Subscript forms-1" two.inferior
Substitution2: "Superscript forms-1" two.superior
EndChar
StartChar: three
Encoding: 51 51 19
Width: 400
Flags: MW
LayerCount: 4
Fore
SplineSet
100 350 m 1
 150 400 l 1
 200 400 l 1
 275 350 l 1
 275 250 l 1
 175 150 l 1049
100 -150 m 25
 144 -150 200 -200 200 -200 c 25
 300 -100 l 1
 300 100 l 9
 225 175 l 1049
EndSplineSet
Substitution2: "Subscript forms-1" three.inferior
Substitution2: "Superscript forms-1" three.superior
EndChar
StartChar: nine
Encoding: 57 57 25
Width: 400
Flags: MW
LayerCount: 4
Fore
SplineSet
300 100 m 1
 200 0 l 1
 100 100 l 25
 100 300 l 25
 200 400 l 25
 300 300 l 1
 300 -100 l 9
 200 -200 l 25
 200 -200 144 -150 100 -150 c 1049
EndSplineSet
Substitution2: "Subscript forms-1" nine.inferior
Substitution2: "Superscript forms-1" nine.superior
EndChar
StartChar: less
Encoding: 60 60 28
Width: 600
Flags: MW
LayerCount: 4
Fore
SplineSet
500 500 m 25
 100 300 l 25
 500 100 l 1049
EndSplineSet
EndChar
StartChar: equal
Encoding: 61 61 29
Width: 600
Flags: MW
LayerCount: 4
Fore
SplineSet
100 200 m 25
 500 200 l 1049
100 400 m 25
 500 400 l 1049
EndSplineSet
EndChar
StartChar: N
Encoding: 78 78 46
Width: 750
Flags: MW
AnchorPoint: "blwmark" 400 0 basechar 0
AnchorPoint: "abvmark" 400 700 basechar 0
LayerCount: 4
Fore
SplineSet
50 550 m 1
 50 550 84 600 124 600 c 3
 160 600 178 575 200 575 c 3
 228 575 250 600 251 600 c 1025
50 0 m 17
 50 0 81 50 150 50 c 3
 248 50 275 0 275 0 c 1
 325 50 l 1
 325 550 l 1
 375 600 l 1
 550 475 l 1
 550 50 l 1
 600 0 l 9
 650 50 l 1049
EndSplineSet
Layer: 2
SplineSet
200 550 m 5
 200 75 l 1029
EndSplineSet
EndChar
StartChar: S
Encoding: 83 83 51
Width: 700
Flags: MW
AnchorPoint: "blwmark" 350 0 basechar 0
AnchorPoint: "abvmark" 350 700 basechar 0
LayerCount: 4
Fore
SplineSet
550 525 m 29
 123 100 l 1053
450 169 m 5
 100 290 l 13
 150 375 l 1053
600 600 m 5
 600 600 514 550 450 550 c 7
 379 550 200 600 200 600 c 5
 100 500 l 5
 100 440 l 5
 600 260 l 5
 600 100 l 5
 500 0 l 5
 500 0 270 50 200 50 c 7
 127 50 50 0 50 0 c 1029
EndSplineSet
EndChar
StartChar: T
Encoding: 84 84 52
Width: 700
Flags: MW
AnchorPoint: "blwmark" 350 0 basechar 0
AnchorPoint: "abvmark" 400 700 basechar 0
LayerCount: 4
Fore
SplineSet
400 450 m 1
 400 100 l 1049
250 450 m 1
 250 450 125 356 125 250 c 3
 125 84 214 0 350 0 c 3
 469 0 601 150 602 150 c 1049
100 500 m 17
 100 500 180 600 250 600 c 27
 330 600 348 500 428 500 c 19
 505 500 575 600 576 600 c 1033
EndSplineSet
Layer: 2
SplineSet
275 450 m 5
 275 100 l 1053
EndSplineSet
EndChar
StartChar: U
Encoding: 85 85 53
Width: 700
Flags: MW
AnchorPoint: "blwmark" 350 0 basechar 0
AnchorPoint: "abvmark" 450 700 basechar 0
LayerCount: 4
Fore
SplineSet
400 550 m 1
 400 100 l 1025
575 50 m 25
 625 0 l 25
 675 50 l 1049
575 625 m 25
 625 575 l 1049
600 600 m 9
 600 25 l 1049
250 550 m 1
 250 550 125 466 125 250 c 3
 125 84 214 0 350 0 c 3
 469 0 601 150 602 150 c 1049
50 550 m 1
 50 550 84 600 124 600 c 3
 204 600 228 575 400 575 c 3
 428 575 450 600 451 600 c 1025
EndSplineSet
Layer: 2
SplineSet
275 525 m 5
 275 50 l 1029
EndSplineSet
EndChar
StartChar: Y
Encoding: 89 89 57
Width: 700
Flags: MW
AnchorPoint: "abvmark" 450 700 basechar 0
LayerCount: 4
Fore
SplineSet
50 550 m 1
 50 550 84 600 124 600 c 3
 160 600 178 575 200 575 c 3
 228 575 250 600 251 600 c 1025
325 250 m 1
 325 550 l 1
 375 600 l 1025
100 100 m 17
 100 100 138 150 175 150 c 3
 374 150 375 0 375 0 c 1
 575 200 l 1025
50 -200 m 17
 50 -200 66 -150 250 -150 c 3
 412 -150 475 -200 475 -200 c 9
 575 -100 l 1
 575 575 l 1025
550 600 m 25
 600 550 l 1049
EndSplineSet
Layer: 2
SplineSet
200 550 m 1
 200 175 l 1025
EndSplineSet
EndChar
StartChar: g
Encoding: 103 103 71
Width: 400
Flags: MW
AnchorPoint: "abvmark" 225 500 basechar 0
LayerCount: 4
Fore
SplineSet
75 -150 m 9
 106 -150 193 -200 225 -200 c 24
 253 -200 300 -150 300 -150 c 9
 300 400 l 1
 300 400 278 360 250 360 c 24
 222 360 200 400 200 400 c 1
 100 300 l 25
 100 100 l 25
 200 0 l 25
 300 100 l 1041
EndSplineSet
EndChar
StartChar: i
Encoding: 105 105 73
Width: 200
Flags: MW
AnchorPoint: "blwmark" 100 0 basechar 0
LayerCount: 4
Fore
SplineSet
100 650 m 25
 150 600 l 25
 100 550 l 1049
125 350 m 25
 75 400 l 25
 25 350 l 1049
100 375 m 9
 100 0 l 1025
EndSplineSet
Substitution2: "Dotless forms-1" dotlessi
EndChar
StartChar: l
Encoding: 108 108 76
Width: 200
Flags: MW
AnchorPoint: "blwmark" 100 0 basechar 0
AnchorPoint: "abvmark" 100 700 basechar 0
LayerCount: 4
Fore
SplineSet
75 625 m 25
 125 575 l 1049
100 600 m 9
 100 0 l 1049
EndSplineSet
EndChar
StartChar: n
Encoding: 110 110 78
Width: 400
Flags: MW
AnchorPoint: "blwmark" 200 0 basechar 0
AnchorPoint: "abvmark" 200 500 basechar 0
LayerCount: 4
Fore
SplineSet
300 0 m 1
 300 325 l 25
 225 400 l 1
 100 275 l 1049
125 350 m 25
 75 400 l 1049
100 375 m 9
 100 0 l 1025
EndSplineSet
Substitution2: "Stylistic alternates-1" n.alt
EndChar
StartChar: s
Encoding: 115 115 83
Width: 400
Flags: MW
AnchorPoint: "blwmark" 200 0 basechar 0
AnchorPoint: "abvmark" 200 500 basechar 0
LayerCount: 4
Fore
SplineSet
325 350 m 1
 281 350 200 400 200 400 c 9
 100 300 l 1
 100 240 l 1
 300 160 l 1
 300 100 l 1
 200 0 l 17
 200 0 104 50 75 50 c 1025
EndSplineSet
EndChar
StartChar: u
Encoding: 117 117 85
Width: 400
Flags: MW
AnchorPoint: "blwmark" 200 0 basechar 0
AnchorPoint: "abvmark" 200 500 basechar 0
LayerCount: 4
Fore
SplineSet
125 350 m 25
 75 400 l 1049
300 0 m 21
 300 375 l 1025
325 350 m 25
 275 400 l 1049
100 375 m 25
 100 75 l 1
 175 0 l 25
 300 125 l 1049
EndSplineSet
EndChar
StartChar: y
Encoding: 121 121 89
Width: 400
Flags: MW
AnchorPoint: "abvmark" 200 500 basechar 0
LayerCount: 4
Fore
SplineSet
125 350 m 25
 75 400 l 1049
325 350 m 25
 275 400 l 1049
75 -150 m 1
 106 -150 193 -200 225 -200 c 24
 253 -200 300 -150 300 -150 c 1
 300 375 l 1025
300 100 m 9
 200 0 l 25
 100 100 l 1
 100 375 l 1049
EndSplineSet
EndChar
StartChar: braceright
Encoding: 125 125 93
Width: 300
Flags: MW
LayerCount: 4
Fore
SplineSet
50 700 m 25
 150 650 l 1
 150 350 l 29
 250 300 l 29
 150 200 l 29
 150 -50 l 1
 50 -150 l 1049
EndSplineSet
EndChar
StartChar: exclamdown
Encoding: 161 161 200
Width: 300
Flags: MW
LayerCount: 4
Fore
SplineSet
175 350 m 29
 125 400 l 1053
175 -150 m 5
 175 -150 161 -120 160 -100 c 28
 152 17 150 200 150 200 c 5
 150 200 147 17 140 -100 c 28
 138 -139 125 -200 125 -200 c 13
 175 -150 l 5
EndSplineSet
EndChar
StartChar: plusminus
Encoding: 177 177 213
Width: 600
Flags: MW
LayerCount: 4
Fore
SplineSet
100 25 m 29
 500 25 l 1053
300 575 m 25
 300 175 l 1049
100 375 m 25
 500 375 l 1049
EndSplineSet
EndChar
StartChar: paragraph
Encoding: 182 182 226
Width: 600
Flags: MW
LayerCount: 4
Fore
SplineSet
300 150 m 17
 300 150 290.06919394 100 225 100 c 3
 140 100 100 177.895380655 100 350 c 3
 100 469 141.905336974 600 274 600 c 3
 310 600 328 575 350 575 c 3
 378 575 400 600 401 600 c 1025
525 600 m 1
 475 550 l 1
 475 -75 l 1025
550 -200 m 1
 550 -200 423 -150 325 -150 c 3
 256 -150 225 -200 225 -200 c 1025
EndSplineSet
Layer: 2
SplineSet
350 550 m 1
 350 -125 l 1025
EndSplineSet
EndChar
StartChar: cedilla
Encoding: 184 184 102
Width: 400
Flags: MW
LayerCount: 4
Fore
SplineSet
200 0 m 25
 175 -25 l 5
 300 -75 l 1
 200 -200 l 1
 200 -200 174 -175 125 -175 c 3
 65 -175 50 -200 50 -200 c 1025
EndSplineSet
EndChar
StartChar: questiondown
Encoding: 191 191 201
Width: 400
Flags: MW
LayerCount: 4
Fore
SplineSet
300 -50 m 29
 300 -125 l 29
 225 -200 l 29
 100 -150 l 29
 100 0 l 29
 200 50 l 29
 200 200 l 1053
225 350 m 29
 175 400 l 1053
EndSplineSet
EndChar
StartChar: multiply
Encoding: 215 215 223
Width: 600
Flags: MW
LayerCount: 4
Fore
SplineSet
500 500 m 25
 100 100 l 1049
100 500 m 25
 500 100 l 1049
EndSplineSet
EndChar
StartChar: hbar
Encoding: 295 295 964
Width: 400
Flags: MW
AnchorPoint: "abvmark" 200 700 basechar 0
AnchorPoint: "blwmark" 200 0 basechar 0
LayerCount: 4
Fore
SplineSet
75 625 m 25
 125 575 l 1049
100 600 m 9
 100 0 l 1049
300 0 m 25
 300 325 l 25
 225 400 l 1
 100 275 l 1049
200 475 m 25
 25 475 l 1049
EndSplineSet
EndChar
StartChar: dotlessi
Encoding: 305 305 97
Width: 200
Flags: MW
AnchorPoint: "blwmark" 100 0 basechar 0
AnchorPoint: "abvmark" 100 500 basechar 0
LayerCount: 4
Fore
SplineSet
125 350 m 25
 75 400 l 25
 25 350 l 1049
100 375 m 9
 100 0 l 1025
EndSplineSet
EndChar
StartChar: Eng
Encoding: 330 330 599
Width: 700
Flags: MW
AnchorPoint: "abvmark" 400 700 basechar 0
LayerCount: 4
Fore
SplineSet
50 550 m 1
 50 550 84 600 124 600 c 3
 160 600 178 575 200 575 c 3
 228 575 250 600 251 600 c 1025
50 0 m 17
 50 0 81 50 150 50 c 3
 248 50 275 0 275 0 c 1
 325 50 l 1
 325 550 l 1
 375 600 l 1
 575 475 l 1
 575 -100 l 1
 475 -200 l 1
 475 -200 412 -150 250 -150 c 3
 66 -150 50 -200 50 -200 c 1033
EndSplineSet
Layer: 2
SplineSet
200 550 m 1
 200 75 l 1025
EndSplineSet
EndChar
StartChar: hv
Encoding: 405 405 514
Width: 600
Flags: MW
AnchorPoint: "blwmark" 300 0 basechar 0
AnchorPoint: "abvmark" 300 700 basechar 0
LayerCount: 4
Fore
SplineSet
505 550 m 25
 504 550 450 514 450 472 c 16
 450 423 500 375 500 375 c 25
 500 100 l 1
 400 0 l 25
 300 100 l 1
 300 325 l 25
 225 400 l 1
 100 275 l 1049
75 625 m 25
 125 575 l 1049
100 600 m 9
 100 0 l 1049
EndSplineSet
EndChar
StartChar: HV
Encoding: 502 502 513
Width: 900
Flags: MW
AnchorPoint: "blwmark" 475 0 basechar 0
AnchorPoint: "abvmark" 500 700 basechar 0
LayerCount: 4
Fore
SplineSet
50 550 m 1
 50 550 84 600 124 600 c 3
 160 600 178 575 200 575 c 3
 228 575 250 600 251 600 c 1025
375 250 m 1
 500 375 l 1
 550 325 l 1
 550 50 l 1
 625 0 l 1
 775 151 l 1
 775 415 l 1
 775 415 700 419 700 475 c 3
 700 530 800 600 800 600 c 1025
375 600 m 1
 325 550 l 1
 325 50 l 1
 275 0 l 1
 275 0 248 50 150 50 c 3
 81 50 50 0 50 0 c 1033
EndSplineSet
Layer: 2
SplineSet
200 550 m 1
 200 75 l 1025
EndSplineSet
EndChar
StartChar: tridotright
Encoding: 4347 4347 895
Width: 500
Flags: MW
LayerCount: 4
Fore
SplineSet
375 200 m 25
 425 150 l 1049
125 350 m 25
 175 300 l 1049
125 50 m 25
 175 0 l 1049
EndSplineSet
EndChar
StartChar: figuredash
Encoding: 8210 8210 908
Width: 400
Flags: MW
LayerCount: 4
Fore
SplineSet
100 200 m 25
 300 200 l 1049
EndSplineSet
EndChar
StartChar: quotedblright
Encoding: 8221 8221 252
Width: 500
Flags: MW
LayerCount: 4
Fore
SplineSet
325 600 m 29
 375 550 l 5
 375 500 l 29
 300 425 l 1053
125 600 m 29
 175 550 l 5
 175 500 l 29
 100 425 l 1053
EndSplineSet
EndChar
StartChar: minute
Encoding: 8242 8242 926
Width: 300
Flags: MW
LayerCount: 4
Fore
SplineSet
200 700 m 17
 200 600 100 525 100 525 c 1041
EndSplineSet
EndChar
StartChar: fraction
Encoding: 8260 8260 217
Width: 700
Flags: MW
LayerCount: 4
Fore
SplineSet
100 0 m 29
 600 700 l 1053
EndSplineSet
EndChar
StartChar: Ubracketleft
Encoding: 11814 11814 912
Width: 500
Flags: MW
LayerCount: 4
Fore
SplineSet
450 400 m 1
 300 400 l 26
 190 400 100 310 100 200 c 27
 100 90 190 0 300 0 c 26
 450 0 l 1025
EndSplineSet
EndChar
StartChar: a_a
Encoding: 42803 42803 336
Width: 600
Flags: MW
AnchorPoint: "abvmark" 300 500 basechar 0
AnchorPoint: "blwmark" 300 0 basechar 0
LayerCount: 4
Fore
SplineSet
300 325 m 1
 375 400 l 1
 500 375 l 1
 500 0 l 1025
500 125 m 25
 375 0 l 1
 300 75 l 1
 300 175 l 1
 375 250 l 1
 375 250 393.963867188 225 450 225 c 3
 469.00390625 225 500 225 500 225 c 1033
125 250 m 17
 100 325 l 1
 175 400 l 1
 300 375 l 1
 300 125 l 9
 175 0 l 1
 100 75 l 1
 100 175 l 1
 175 250 l 1
 175 250 193.964297096 225 250 225 c 3
 269.004218286 225 300 225 300 225 c 1033
EndSplineSet
LCarets2: 1 300 
Ligature2: "Historic ligatures-1" a a
EndChar
StartChar: avslash
Encoding: 42811 42811 861
Width: 600
Flags: MW
AnchorPoint: "abvmark" 300 500 basechar 0
AnchorPoint: "blwmark" 300 0 basechar 0
LayerCount: 4
Fore
SplineSet
300 250 m 25
 550 250 l 1049
300 125 m 9
 175 0 l 1
 100 75 l 1
 100 175 l 1
 175 250 l 1
 175 250 193.964297096 225 250 225 c 3
 269.004218286 225 300 225 300 225 c 1033
505 550 m 25
 504 550 450 514 450 472 c 16
 450 423 500 375 500 375 c 25
 500 100 l 1
 400 0 l 25
 300 100 l 1
 300 375 l 17
 175 400 l 1
 100 325 l 1
 125 250 l 1033
EndSplineSet
EndChar
StartChar: a_y
Encoding: 42813 42813 346
Width: 600
Flags: MW
AnchorPoint: "abvmark" 300 500 basechar 0
LayerCount: 4
Fore
SplineSet
300 125 m 9
 175 0 l 1
 100 75 l 1
 100 175 l 1
 175 250 l 1
 175 250 193.964297096 225 250 225 c 3
 269.004218286 225 300 225 300 225 c 1033
525 350 m 25
 475 400 l 1049
275 -150 m 1
 306 -150 393 -200 425 -200 c 24
 453 -200 500 -150 500 -150 c 1
 500 375 l 1025
500 100 m 9
 400 0 l 25
 300 100 l 1
 300 375 l 17
 175 400 l 1
 100 325 l 1
 125 250 l 1033
EndSplineSet
LCarets2: 1 300 
Ligature2: "Historic ligatures-1" a y
EndChar
StartChar: lbroken
Encoding: 42823 42823 574
Width: 350
Flags: MW
LayerCount: 4
Fore
SplineSet
75 625 m 25
 125 575 l 1049
100 600 m 1
 100 250 l 1
 250 400 l 1
 250 0 l 1025
EndSplineSet
EndChar
StartChar: lbar
Encoding: 42825 42825 865
Width: 200
Flags: MW
AnchorPoint: "abvmark" 100 700 basechar 0
AnchorPoint: "blwmark" 100 0 basechar 0
LayerCount: 4
Fore
SplineSet
75 625 m 25
 125 575 l 1049
100 600 m 9
 100 0 l 1049
175 475 m 25
 25 475 l 1049
EndSplineSet
EndChar
StartChar: y_y
Encoding: 42849 42849 834
Width: 600
Flags: MW
AnchorPoint: "abvmark" 300 500 basechar 0
LayerCount: 4
Fore
SplineSet
325 350 m 25
 275 400 l 1049
525 350 m 25
 475 400 l 1049
75 -150 m 1
 194 -150 306 -200 425 -200 c 24
 460 -200 500 -150 500 -150 c 1
 500 375 l 1025
500 100 m 9
 400 0 l 25
 300 100 l 1
 300 375 l 1049
125 350 m 25
 75 400 l 1049
300 100 m 9
 200 0 l 25
 100 100 l 1
 100 375 l 1049
EndSplineSet
LCarets2: 1 300 
Ligature2: "Historic ligatures-1" y y
EndChar
StartChar: lum
Encoding: 42866 42866 573
Width: 425
Flags: MW
LayerCount: 4
Fore
SplineSet
225 225 m 1
 275 200 l 1
 275 200 275 139 275 100 c 27
 275 3 125 -150 125 -150 c 1025
375 50 m 17
 375 50 356 0 300 0 c 3
 206 0 175 50 175 50 c 9
 125 0 l 25
 75 50 l 1025
75 625 m 25
 125 575 l 1049
100 600 m 9
 100 25 l 1049
EndSplineSet
EndChar
StartChar: mum
Encoding: 42867 42867 587
Width: 825
Flags: MW
LayerCount: 4
Fore
SplineSet
500 25 m 1
 500 325 l 25
 425 400 l 1
 300 275 l 1041
300 0 m 1
 300 325 l 25
 225 400 l 1
 100 275 l 1041
125 350 m 9
 75 400 l 1041
100 375 m 9
 100 0 l 1025
625 225 m 1
 675 200 l 1
 675 200 675 139 675 100 c 27
 675 3 525 -150 525 -150 c 1025
775 50 m 17
 775 50 756 0 700 0 c 3
 606 0 575 50 575 50 c 9
 525 0 l 25
 475 50 l 1025
EndSplineSet
EndChar
StartChar: Rumsmallcap
Encoding: 42870 42870 858
Width: 650
Flags: MW
LayerCount: 4
Fore
SplineSet
450 225 m 1
 500 200 l 1
 500 200 500 139 500 100 c 27
 500 3 350 -150 350 -150 c 1025
600 50 m 17
 600 50 581 0 525 0 c 3
 431 0 400 50 400 50 c 9
 350 0 l 1
 350 0 331 82 300 125 c 24
 280 154 225 175 225 175 c 1025
75 400 m 25
 125 350 l 1049
100 375 m 9
 100 0 l 1025
200 150 m 1
 350 300 l 1
 200 400 l 1
 100 300 l 1049
EndSplineSet
EndChar
StartChar: tum
Encoding: 42871 42871 728
Width: 600
Flags: MW
LayerCount: 4
Fore
SplineSet
50 400 m 1049,0,-1
125 550 m 1,2,-1
 125 50 l 1,3,-1
 175 0 l 1,4,-1
 275 100 l 1025
400 525 m 1,0,-1
 450 500 l 1,1,2
 450 500 450 406 450 250 c 3,3,4
 450 -37.2509765625 300 -150 300 -150 c 1025
550 400 m 1,6,7
 550 400 518 350 350 350 c 3,8,9
 173 350 50 400 50 400 c 1025,10,-1
EndSplineSet
EndChar
StartChar: thorn_longs
Encoding: 59188 59188 884
Width: 400
Flags: MW
LayerCount: 4
Fore
SplineSet
125 -150 m 1
 125 550 l 1
 225 650 l 17
 225 650 256 600 300 600 c 24
 328 600 375 650 376 650 c 1033
50 0 m 1
 50 0 96 50 125 50 c 0
 154 50 200 0 200 0 c 9
 300 100 l 1
 300 300 l 25
 200 400 l 1
 100 300 l 1049
EndSplineSet
LCarets2: 1 200 
Ligature2: "Historic ligatures-1" thorn longs
EndChar
StartChar: hbar_longs
Encoding: 59335 59335 963
Width: 425
Flags: MW
LayerCount: 4
Fore
SplineSet
325 0 m 25
 325 325 l 25
 250 400 l 1
 125 275 l 1049
125 -150 m 1
 125 550 l 1
 225 650 l 17
 225 650 256 600 300 600 c 24
 328 600 375 650 376 650 c 1033
200 475 m 25
 25 475 l 1049
EndSplineSet
LCarets2: 1 225 
Ligature2: "Historic ligatures-1" hbar longs
EndChar
StartChar: longs_i
Encoding: 60322 60322 328
Width: 450
GlyphClass: 3
Flags: MW
LayerCount: 4
Fore
SplineSet
350 375 m 9
 350 0 l 1025
325 400 m 25
 375 350 l 1025
125 -150 m 1
 125 550 l 1
 225 650 l 1
 225 650 300 600 400 600 c 9
 350 550 l 1025
EndSplineSet
LCarets2: 1 300 
Ligature2: "Ligatures-1" longs i
EndChar
StartChar: longs_l
Encoding: 60323 60323 330
Width: 450
GlyphClass: 3
Flags: MW
LayerCount: 4
Fore
SplineSet
125 -150 m 1
 125 550 l 1
 225 650 l 1
 225 650 265 625 325 625 c 9
 375 575 l 1025
350 600 m 9
 350 0 l 1049
EndSplineSet
LCarets2: 1 300 
Ligature2: "Ligatures-1" longs l
EndChar
StartChar: longs_longs_i
Encoding: 60327 60327 331
Width: 650
GlyphClass: 3
Flags: MW
LayerCount: 4
Fore
SplineSet
325 -150 m 1
 325 550 l 1
 425 650 l 17
 425 650 500 600 600 600 c 1
 550 550 l 1025
125 -150 m 1
 125 550 l 1
 225 650 l 1
 225 650 281 550 325 550 c 1025
525 400 m 25
 575 350 l 1025
550 375 m 9
 550 0 l 1025
EndSplineSet
LCarets2: 2 300 500 
Ligature2: "Ligatures-1" longs longs i
EndChar
StartChar: k_longs
Encoding: 60334 60334 566
Width: 425
Flags: MW
LayerCount: 4
Fore
SplineSet
125 -150 m 1
 125 550 l 1
 225 650 l 17
 225 650 256 600 300 600 c 24
 328 600 375 650 376 650 c 1033
225 275 m 1
 325 200 l 1
 325 0 l 1025
125 200 m 1
 325 350 l 9
 325 400 l 1049
300 425 m 25
 350 375 l 1049
EndSplineSet
LCarets2: 1 225 
Ligature2: "Historic ligatures-1" k longs
EndChar
StartChar: b_g
Encoding: 61123 61123 350
Width: 400
GlyphClass: 3
Flags: MW
LayerCount: 4
Fore
SplineSet
100 600 m 9
 100 100 l 25
 200 0 l 1
 300 100 l 25
 300 300 l 1
 200 400 l 1
 100 300 l 1049
75 -150 m 1
 106 -150 193 -200 225 -200 c 24
 253 -200 300 -150 300 -150 c 1
 300 100 l 1033
75 625 m 25
 125 575 l 1049
EndSplineSet
LCarets2: 1 200 
Ligature2: "Historic ligatures-1" b g
EndChar
StartChar: f_j
Encoding: 61129 61129 322
Width: 450
GlyphClass: 3
Flags: MW
LayerCount: 4
Fore
SplineSet
350 375 m 1
 350 -100 l 9
 300 -150 l 1049
50 400 m 1
 325 400 l 25
 375 350 l 1025
125 -150 m 1
 125 550 l 1
 225 650 l 1
 225 650 300 600 400 600 c 9
 350 550 l 1025
EndSplineSet
LCarets2: 1 300 
Ligature2: "Ligatures-1" f j
EndChar
StartChar: f_t
Encoding: 61131 61131 326
Width: 525
GlyphClass: 3
Flags: MW
LayerCount: 4
Fore
SplineSet
125 -150 m 1
 125 550 l 1
 225 650 l 1
 225 650 281 550 325 550 c 1
 325 50 l 1
 375 0 l 1
 475 100 l 1025
50 400 m 25
 450 400 l 1049
EndSplineSet
LCarets2: 1 300 
Ligature2: "Ligatures-1" f t
EndChar
StartChar: f_f_t
Encoding: 61134 61134 354
Width: 725
GlyphClass: 3
Flags: MW
LayerCount: 4
Fore
SplineSet
675 100 m 1
 575 0 l 1
 525 50 l 1
 525 550 l 1
 481 550 425 650 425 650 c 9
 325 550 l 1
 325 -150 l 1025
125 -150 m 1
 125 550 l 1
 225 650 l 1
 225 650 281 550 325 550 c 1025
50 400 m 1
 650 400 l 1049
EndSplineSet
LCarets2: 2 300 500 
Ligature2: "Ligatures-1" f f t
EndChar
StartChar: f_t_y
Encoding: 61136 61136 356
Width: 850
GlyphClass: 3
Flags: MW
LayerCount: 4
Fore
SplineSet
775 350 m 25
 725 400 l 1049
525 -150 m 13
 556 -150 643 -200 675 -200 c 24
 703 -200 750 -150 750 -150 c 1
 750 375 l 1025
750 100 m 9
 650 0 l 25
 550 100 l 1
 550 375 l 1049
125 -150 m 1
 125 550 l 1
 225 650 l 1
 225 650 281 550 325 550 c 1
 325 50 l 1
 375 0 l 1
 475 100 l 1025
50 400 m 1
 525 400 l 25
 575 350 l 1025
EndSplineSet
LCarets2: 2 300 500 
Ligature2: "Ligatures-1" f t y
EndChar
StartChar: g_g
Encoding: 61137 61137 497
Width: 600
Flags: MW
LayerCount: 4
Fore
SplineSet
300 -150 m 8
 331 -150 393 -200 425 -200 c 0
 453 -200 500 -150 500 -150 c 9
 500 400 l 1
 500 400 478 360 450 360 c 24
 422 360 400 400 400 400 c 1
 300 300 l 25
 300 100 l 25
 400 0 l 25
 500 100 l 1041
75 -150 m 13
 106 -150 193 -200 225 -200 c 24
 253 -200 300 -150 300 -150 c 9
 300 400 l 1
 300 400 278 360 250 360 c 24
 222 360 200 400 200 400 c 1
 100 300 l 25
 100 100 l 25
 200 0 l 25
 300 100 l 1041
EndSplineSet
LCarets2: 1 300 
Ligature2: "Historic ligatures-1" g g
EndChar
StartChar: g_eth
Encoding: 61140 61140 499
Width: 400
Flags: MW
LayerCount: 4
Fore
SplineSet
275 625 m 1
 100 450 l 1025
300 400 m 1
 300 450 l 2
 300 504.764528378 244 550 200 550 c 0
 156 550 100 556 100 600 c 27
 100 628 140 650 141 650 c 1049
75 -150 m 9
 106 -150 193 -200 225 -200 c 24
 253 -200 300 -150 300 -150 c 9
 300 400 l 1
 300 400 278 360 250 360 c 24
 222 360 200 400 200 400 c 1
 100 300 l 25
 100 100 l 25
 200 0 l 25
 300 100 l 1041
EndSplineSet
LCarets2: 1 200 
Ligature2: "Historic ligatures-1" g eth
EndChar
StartChar: t_r
Encoding: 61144 61144 729
Width: 500
Flags: MW
LayerCount: 4
Fore
SplineSet
450 350 m 25
 400 400 l 25
 300 300 l 1049
300 375 m 9
 300 0 l 1025
125 550 m 1
 125 50 l 1
 175 0 l 1
 275 100 l 1025
50 400 m 1
 275 400 l 25
 325 350 l 1025
EndSplineSet
LCarets2: 1 300 
Ligature2: "Ligatures-1" t r
EndChar
StartChar: c_h
Encoding: 61883 61883 853
Width: 650
Flags: MW
LayerCount: 4
Fore
SplineSet
300 300 m 9
 200 400 l 25
 100 300 l 25
 100 100 l 25
 200 0 l 25
 300 100 l 1041
325 625 m 25
 375 575 l 1049
350 600 m 9
 350 0 l 1049
550 0 m 25
 550 325 l 25
 475 400 l 1
 350 275 l 1049
EndSplineSet
LCarets2: 1 300 
Ligature2: "Ligatures-1" c h
EndChar
StartChar: m.alt
Encoding: 61987 61987 588
Width: 600
Flags: MW
AnchorPoint: "abvmark" 300 500 basechar 0
LayerCount: 4
Fore
SplineSet
300 0 m 1
 300 325 l 25
 225 400 l 1
 100 275 l 1049
125 350 m 25
 75 400 l 1049
100 375 m 9
 100 0 l 1025
450 -150 m 25
 500 -100 l 1
 500 325 l 9
 425 400 l 1
 300 275 l 1049
EndSplineSet
EndChar
StartChar: l_l
Encoding: 62713 62713 575
Width: 400
Flags: MW
LayerCount: 4
Fore
SplineSet
275 625 m 25
 325 575 l 1049
300 600 m 9
 300 0 l 1049
75 625 m 25
 125 575 l 1049
100 600 m 9
 100 0 l 1049
EndSplineSet
LCarets2: 1 200 
Ligature2: "Ligatures-1" l l
EndChar
StartChar: longs_c_h
Encoding: 62714 62714 706
Width: 850
Flags: MW
LayerCount: 4
Fore
SplineSet
125 -150 m 1
 125 550 l 1
 225 650 l 17
 225 650 256 600 300 600 c 24
 328 600 375 650 376 650 c 1033
500 300 m 9
 400 400 l 25
 300 300 l 25
 300 100 l 25
 400 0 l 25
 500 100 l 1041
525 625 m 25
 575 575 l 1049
550 600 m 9
 550 0 l 1053
750 0 m 29
 750 325 l 25
 675 400 l 1
 550 275 l 1049
EndSplineSet
LCarets2: 2 300 550 
Ligature2: "Ligatures-1" longs c h
EndChar
StartChar: longs_k
Encoding: 62716 62716 708
Width: 650
Flags: MW
LayerCount: 4
Fore
SplineSet
525 425 m 25
 575 375 l 1049
350 200 m 1
 550 350 l 9
 550 400 l 1049
450 275 m 1
 550 200 l 1
 550 0 l 1025
125 -150 m 1
 125 550 l 1
 225 650 l 1
 225 650 266 600 350 600 c 9
 350 0 l 1025
EndSplineSet
LCarets2: 1 300 
Ligature2: "Ligatures-1" longs k
EndChar
StartChar: longs_longs_t
Encoding: 62719 62719 712
Width: 725
Flags: MW
LayerCount: 4
Fore
SplineSet
675 100 m 1
 575 0 l 1
 525 50 l 1
 525 550 l 1
 481 550 425 650 425 650 c 1
 325 550 l 1
 325 -150 l 1025
450 400 m 25
 650 400 l 1049
125 -150 m 1
 125 550 l 1
 225 650 l 1
 225 650 281 550 325 550 c 1025
EndSplineSet
LCarets2: 2 300 500 
Ligature2: "Ligatures-1" longs longs t
EndChar
StartChar: f_f
Encoding: 64256 64256 320
Width: 500
Flags: MW
LayerCount: 4
Fore
SplineSet
325 -150 m 1
 325 550 l 1
 425 650 l 17
 425 650 456 600 500 600 c 24
 528 600 575 650 576 650 c 1033
125 -150 m 1
 125 550 l 1
 225 650 l 1
 225 650 281 550 325 550 c 1025
50 400 m 25
 450 400 l 1049
EndSplineSet
LCarets2: 1 300 
Ligature2: "Ligatures-1" f f
EndChar
StartChar: f_i
Encoding: 64257 64257 321
Width: 450
Flags: MW
LayerCount: 4
Fore
SplineSet
350 375 m 9
 350 0 l 1025
50 400 m 1
 325 400 l 25
 375 350 l 1025
125 -150 m 1
 125 550 l 1
 225 650 l 1
 225 650 300 600 400 600 c 9
 350 550 l 1025
EndSplineSet
LCarets2: 1 300 
Ligature2: "Ligatures-1" f i
EndChar
StartChar: f_l
Encoding: 64258 64258 323
Width: 450
Flags: MW
LayerCount: 4
Fore
SplineSet
125 -150 m 1
 125 550 l 1
 225 650 l 1
 225 650 265 625 325 625 c 9
 375 575 l 1025
50 400 m 25
 300 400 l 1049
350 600 m 9
 350 0 l 1049
EndSplineSet
LCarets2: 1 300 
Ligature2: "Ligatures-1" f l
EndChar
StartChar: f_f_i
Encoding: 64259 64259 324
Width: 650
Flags: MW
LayerCount: 4
Fore
SplineSet
325 -150 m 1
 325 550 l 1
 425 650 l 17
 425 650 500 600 600 600 c 1
 550 550 l 1025
125 -150 m 1
 125 550 l 1
 225 650 l 1
 225 650 281 550 325 550 c 1025
50 400 m 1
 525 400 l 25
 575 350 l 1025
550 375 m 9
 550 0 l 1025
EndSplineSet
LCarets2: 2 300 500 
Ligature2: "Ligatures-1" f f i
EndChar
StartChar: f_f_l
Encoding: 64260 64260 325
Width: 650
Flags: MW
LayerCount: 4
Fore
SplineSet
325 -150 m 1
 325 550 l 1
 425 650 l 17
 425 650 465 625 525 625 c 1
 575 575 l 1025
125 -150 m 1
 125 550 l 1
 225 650 l 1
 225 650 281 550 325 550 c 1025
50 400 m 25
 500 400 l 1049
550 600 m 9
 550 0 l 1049
EndSplineSet
LCarets2: 2 300 500 
Ligature2: "Ligatures-1" f f l
EndChar
StartChar: longs_t
Encoding: 64261 64261 333
Width: 525
Flags: MW
LayerCount: 4
Fore
SplineSet
125 -150 m 1
 125 550 l 1
 225 650 l 1
 225 650 281 550 325 550 c 1
 325 50 l 1
 375 0 l 1
 475 100 l 1025
250 400 m 25
 450 400 l 1049
EndSplineSet
LCarets2: 1 300 
Ligature2: "Ligatures-1" longs t
EndChar
